HIERARCHY
ROOT root
{
	OFFSET 0.000000 0.000000 0.000000
	CHANNELS 6 Xposition Yposition Zposition Zrotation Yrotation Xrotation
	JOINT lhip
	{
		OFFSET 0.058581 -0.082280 -0.017664
		CHANNELS 3 Zrotation Yrotation Xrotation
		JOINT lknee
		{
			OFFSET 0.043451 -0.386469 0.008037
			CHANNELS 3 Zrotation Yrotation Xrotation
			JOINT lankle
			{
				OFFSET -0.014790 -0.426874 -0.037428
				CHANNELS 3 Zrotation Yrotation Xrotation
				JOINT ltoe
				{
					OFFSET 0.041054 -0.060286 0.122042
					CHANNELS 3 Zrotation Yrotation Xrotation
					End Site
					{
						OFFSET 0.000000 0.000000 0.000000
					}
				}
			}
		}
	}
	JOINT rhip
	{
		OFFSET -0.060310 -0.090513 -0.013543
		CHANNELS 3 Zrotation Yrotation Xrotation
		JOINT rknee
		{
			OFFSET -0.043257 -0.383688 -0.004843
			CHANNELS 3 Zrotation Yrotation Xrotation
			JOINT rankle
			{
				OFFSET 0.019056 -0.420046 -0.034562
				CHANNELS 3 Zrotation Yrotation Xrotation
				JOINT rtoe
				{
					OFFSET -0.034840 -0.062106 0.130323
					CHANNELS 3 Zrotation Yrotation Xrotation
					End Site
					{
						OFFSET 0.000000 0.000000 0.000000
					}
				}
			}
		}
	}
	JOINT lowerback
	{
		OFFSET 0.004439 0.124404 -0.038385
		CHANNELS 3 Zrotation Yrotation Xrotation
		JOINT upperback
		{
			OFFSET 0.004488 0.137956 0.026820
			CHANNELS 3 Zrotation Yrotation Xrotation
			JOINT chest
			{
				OFFSET -0.002265 0.056032 0.002855
				CHANNELS 3 Zrotation Yrotation Xrotation
				JOINT lowerneck
				{
					OFFSET -0.013390 0.211636 -0.033468
					CHANNELS 3 Zrotation Yrotation Xrotation
					JOINT upperneck
					{
						OFFSET 0.010113 0.088937 0.050410
						CHANNELS 3 Zrotation Yrotation Xrotation
						End Site
						{
							OFFSET 0.000000 0.000000 0.000000
						}
					}
				}
				JOINT lclavicle
				{
					OFFSET 0.071702 0.114000 -0.018898
					CHANNELS 3 Zrotation Yrotation Xrotation
					JOINT lshoulder
					{
						OFFSET 0.122921 0.045205 -0.019046
						CHANNELS 3 Zrotation Yrotation Xrotation
						JOINT lelbow
						{
							OFFSET 0.255332 -0.015649 -0.022946
							CHANNELS 3 Zrotation Yrotation Xrotation
							JOINT lwrist
							{
								OFFSET 0.265709 0.012698 -0.007375
								CHANNELS 3 Zrotation Yrotation Xrotation
								End Site
								{
									OFFSET 0.000000 0.000000 0.000000
								}
							}
						}
					}
				}
				JOINT rclavicle
				{
					OFFSET -0.082954 0.112472 -0.023707
					CHANNELS 3 Zrotation Yrotation Xrotation
					JOINT rshoulder
					{
						OFFSET -0.113228 0.046853 -0.008472
						CHANNELS 3 Zrotation Yrotation Xrotation
						JOINT relbow
						{
							OFFSET -0.260127 -0.014369 -0.031269
							CHANNELS 3 Zrotation Yrotation Xrotation
							JOINT rwrist
							{
								OFFSET -0.269108 0.006794 -0.006027
								CHANNELS 3 Zrotation Yrotation Xrotation
								End Site
								{
									OFFSET 0.000000 0.000000 0.000000
								}
							}
						}
					}
				}
			}
		}
	}
}
MOTION
Frames: 10
Frame Time: 0.033333
-0.134007 -0.494124 0.986853 176.674156 0.938451 84.818783 0.755587 3.067213 5.164840 -6.282117 -3.903764 0.257931 5.959668 9.811455 -18.590900 0.000000 -0.000000 0.000000 -2.886789 -2.824893 -3.958428 -0.406712 -4.440507 24.337109 3.426550 -4.922844 -21.257765 0.000000 -0.000000 0.000000 -2.285795 3.426076 9.086427 -2.228634 1.937525 -2.329600 -2.086571 0.037563 1.758419 -2.369061 -16.209476 13.561895 5.757061 -19.065806 4.332148 -20.487762 5.000453 4.916676 -61.233720 -3.376878 10.604943 16.972763 -31.326216 -8.147529 11.907543 -1.443310 -31.286478 16.137065 6.631064 1.561364 70.769118 4.695203 17.976464 -0.507358 28.104497 12.473289 -3.147115 6.584908 -6.160783 
-0.137920 -0.494598 0.986491 177.026221 0.760795 85.045460 0.421288 2.919141 5.267142 -6.500507 -4.084093 -0.441901 5.800907 9.667027 -18.350962 0.000000 -0.000000 0.000000 -3.529044 -2.528160 -5.293276 0.081757 -5.013635 26.218839 3.802581 -5.819076 -21.178152 0.000000 -0.000000 0.000000 -2.203858 2.113449 8.955223 -2.243713 1.591004 -2.502897 -2.107115 0.373625 2.935725 -0.960417 -15.891942 9.533662 4.914814 -19.403993 4.230438 -20.366580 5.249658 3.697135 -60.849884 -3.990809 11.239054 15.822066 -31.793355 -7.727255 12.799517 -1.974340 -30.598858 16.488817 6.320850 0.311819 70.343229 4.683233 18.671336 -1.248691 27.066604 10.277969 -3.453654 6.418359 -5.176458 
-0.141435 -0.495390 0.986814 177.353615 0.602602 85.322552 -0.075325 2.624483 5.186810 -6.442650 -4.261936 -0.835770 5.761463 9.773015 -18.192286 0.000000 -0.000000 0.000000 -3.965088 -2.239433 -6.803563 0.341692 -5.358333 28.265475 3.996201 -6.838627 -21.004236 0.000000 -0.000000 0.000000 -2.177389 0.616868 8.669963 -2.295516 1.010158 -2.443293 -2.097593 1.025287 3.918792 0.217632 -15.440063 5.986142 4.134684 -19.667253 3.707414 -20.406458 5.265729 2.389809 -60.144103 -4.294306 12.234436 15.336712 -32.275897 -7.523872 12.749325 -2.225794 -31.227923 16.956278 6.523335 -1.034005 69.771504 4.589821 19.560621 -1.892723 25.681223 8.497760 -3.287471 6.162162 -4.453136 
-0.143770 -0.500488 0.987399 177.503418 0.971915 86.103623 0.210628 2.399643 3.935079 -6.741475 -3.992248 -0.511061 5.928373 9.670334 -18.136160 0.000000 -0.000000 0.000000 -3.321899 -1.796342 -10.106291 0.278285 -5.207322 31.825216 3.827391 -7.604061 -21.253084 0.000000 -0.000000 0.000000 -2.080142 0.442767 8.546964 -1.687761 0.584902 -2.273633 -1.795364 0.533146 3.455551 0.419212 -15.396047 5.792232 4.824826 -19.448929 2.365905 -20.322860 3.856189 2.716760 -59.713212 -4.865570 12.846927 15.101893 -32.924381 -7.648553 13.959930 -1.648337 -31.348490 16.942541 6.984399 -0.922087 69.172971 4.488732 19.015311 -2.561187 24.881606 7.216655 -4.330495 5.699158 -4.626725 
-0.144417 -0.500988 0.987676 177.815732 1.072893 85.916138 0.314234 2.428096 4.133365 -6.802855 -4.252638 -0.542839 5.847508 9.632247 -18.099713 0.000000 -0.000000 0.000000 -3.166712 -1.577247 -10.336778 0.291836 -5.210236 32.654170 3.619021 -7.763906 -21.489961 0.000000 -0.000000 0.000000 -2.022460 0.195708 8.834285 -1.549145 0.387702 -2.207126 -1.715654 0.478566 3.443798 0.545929 -15.311199 5.701305 5.074914 -19.447046 2.016840 -20.171882 3.391990 2.798262 -59.556814 -5.077130 12.997415 14.811371 -33.214006 -7.278054 14.134821 -1.568186 -31.528239 16.874037 7.110801 -0.993148 69.063221 4.330024 18.856404 -2.729708 24.760326 7.127050 -4.684175 5.672424 -4.489274 
-0.146067 -0.500315 0.988175 178.583388 0.904366 85.033384 -0.055481 2.384881 5.269603 -6.601589 -5.178372 -0.808950 5.707400 9.998278 -17.977979 0.000000 -0.000000 0.000000 -3.366871 -0.457435 -9.684985 0.583242 -5.276225 33.744405 3.375209 -8.195128 -22.230032 0.000000 -0.000000 0.000000 -2.074461 -0.423192 9.804070 -1.473649 0.091624 -2.097572 -1.594946 0.325204 3.495324 0.664441 -15.180297 5.511374 5.393648 -19.387692 1.671037 -19.905789 2.305139 3.017810 -59.469984 -5.500792 13.080295 14.728904 -33.446654 -7.267723 14.784290 -1.809229 -31.502359 16.716629 7.464998 -1.194252 68.903302 3.814034 18.551302 -2.906541 24.614910 7.203360 -6.057737 5.886152 -3.823631 
-0.146169 -0.501033 0.988495 178.941562 0.931300 85.081531 -0.068729 2.244460 5.161080 -6.566356 -5.377851 -0.805049 5.636327 10.107943 -17.790162 0.000000 -0.000000 0.000000 -3.013391 0.185667 -10.159146 1.219773 -3.929959 34.867331 3.496022 -7.257104 -22.844481 0.000000 -0.000000 0.000000 -1.965324 -0.688382 9.901009 -1.243449 -0.203715 -2.141727 -1.598804 0.236110 3.447342 0.771043 -14.880091 5.477600 5.580426 -19.300201 1.104298 -19.928778 1.656499 3.033238 -58.918859 -5.771677 13.455155 14.223903 -34.062091 -7.289089 15.696527 -1.800221 -31.528438 16.805200 7.528628 -1.138447 68.633272 3.432034 18.534056 -3.133289 24.681488 7.025370 -7.750901 6.062517 -3.172972 
-0.146064 -0.500314 0.988701 179.501408 0.748199 84.551072 -0.310042 2.123062 5.903765 -6.417354 -5.967676 -1.064287 5.434712 10.419634 -17.705432 0.000000 -0.000000 0.000000 -2.732411 1.258757 -9.380601 1.423527 -2.912313 35.446350 3.407135 -7.224815 -23.620821 0.000000 -0.000000 0.000000 -2.007300 -1.147585 10.305064 -1.165737 -0.503951 -2.117298 -1.578590 0.248398 3.549191 0.870617 -14.666091 5.631794 5.762425 -19.144747 0.752304 -19.814299 1.077196 3.085946 -58.544897 -5.971826 13.665597 13.802825 -34.878914 -7.259636 16.348353 -1.848269 -31.611500 16.837661 7.728004 -1.194774 68.445524 2.946948 18.507729 -3.314364 24.908260 6.793063 -9.199097 6.412230 -2.754216 
-0.144886 -0.501151 0.988493 179.791370 0.610851 84.693992 -0.370232 2.036234 5.740488 -6.429801 -5.923813 -1.150186 5.315961 10.273376 -17.531143 0.000000 -0.000000 0.000000 -2.533575 1.551608 -9.533112 1.222537 -2.478817 36.329010 3.335220 -7.255079 -24.303953 0.000000 -0.000000 0.000000 -1.913478 -1.257434 10.020923 -1.054930 -0.717550 -1.973114 -1.619661 0.167250 3.386634 0.817130 -14.455873 5.881398 6.044195 -18.939682 0.296517 -19.718015 0.735473 3.189582 -58.287425 -6.149445 13.934852 13.597072 -35.764013 -7.207593 16.519903 -1.875890 -31.872420 16.698853 7.661370 -1.147125 68.457881 2.594371 18.478567 -3.403114 25.265641 6.785028 -9.582983 6.503534 -2.988093 
-0.143393 -0.502101 0.988476 -179.925701 0.349889 84.962982 -0.554090 1.928617 5.453022 -6.447470 -5.887241 -1.249751 5.180470 10.088761 -17.343860 0.000000 -0.000000 0.000000 -2.525938 1.796673 -9.544473 1.009279 -2.129306 36.839515 3.273440 -7.292013 -24.586794 0.000000 -0.000000 0.000000 -1.810837 -1.525613 9.751624 -1.098551 -0.894452 -2.247935 -1.724931 0.247671 3.252491 0.771888 -14.377796 6.075202 6.008298 -18.731394 0.459691 -19.789591 0.649645 3.310411 -57.963826 -6.192734 14.131719 13.529237 -36.587240 -7.165333 16.015151 -1.986714 -31.962469 16.760404 7.490235 -1.073719 68.352448 2.251279 18.488561 -3.294320 25.594462 6.877799 -8.372587 6.351787 -3.654877 
